<svg width="1600" height="17" viewBox="0 0 1600 17" fill="none" xmlns="http://www.w3.org/2000/svg">
<path d="M533.318 15.9957C532.718 15.8989 531.899 14.8299 529.722 11.968C527.627 9.21328 524.908 9.56238 524.908 9.56238L524.912 9.56487C524.912 9.56487 525.261 6.84614 522.507 4.7506C519.644 2.57382 518.576 1.75563 518.479 1.15509C518.382 1.75563 517.313 2.57382 514.451 4.7506C511.696 6.84614 512.046 9.56487 512.046 9.56487L512.044 9.56673C512.044 9.56673 509.325 9.21762 507.23 11.9723C505.053 14.8343 504.234 15.9033 503.634 16V15.9957C503.033 15.8989 502.215 14.8299 500.038 11.968C497.943 9.21328 495.224 9.56238 495.224 9.56238L495.228 9.56487C495.228 9.56487 495.577 6.84614 492.822 4.7506C489.96 2.57382 488.891 1.75563 488.795 1.15509C488.698 1.75563 487.629 2.57382 484.767 4.7506C482.012 6.84614 482.361 9.56487 482.361 9.56487L482.359 9.56673C482.359 9.56673 479.641 9.21762 477.545 11.9723C475.368 14.8343 474.55 15.9033 473.95 16V15.9957C473.349 15.8989 472.531 14.8299 470.354 11.968C468.258 9.21328 465.54 9.56238 465.54 9.56238L465.543 9.56487C465.543 9.56487 465.892 6.84614 463.138 4.7506C460.276 2.57382 459.207 1.75563 459.11 1.15509C459.013 1.75563 457.945 2.57382 455.082 4.7506C452.328 6.84614 452.677 9.56487 452.677 9.56487L452.675 9.56673C452.675 9.56673 449.956 9.21762 447.861 11.9723C445.684 14.8343 444.866 15.9033 444.265 16V15.9957C443.665 15.8989 442.846 14.8299 440.67 11.968C438.574 9.21328 435.856 9.56238 435.856 9.56238L435.859 9.56487C435.859 9.56487 436.208 6.84614 433.453 4.7506C430.592 2.57382 429.523 1.75563 429.426 1.15509C429.329 1.75563 428.26 2.57382 425.398 4.7506C422.643 6.84614 422.992 9.56487 422.992 9.56487L422.99 9.56673C422.99 9.56673 420.272 9.21762 418.176 11.9723C416 14.8343 415.181 15.9033 414.581 16V15.9957C413.98 15.8989 413.162 14.8299 410.985 11.968C408.89 9.21328 406.171 9.56238 406.171 9.56238L406.174 9.56487C406.174 9.56487 406.524 6.84614 403.769 4.7506C400.907 2.57382 399.838 1.75563 399.741 1.15509C399.644 1.75563 398.575 2.57382 395.714 4.7506C392.959 6.84614 393.308 9.56487 393.308 9.56487L393.306 9.56673C393.306 9.56673 390.588 9.21762 388.492 11.9723C386.315 14.8343 385.497 15.9033 384.896 16V15.9957C384.296 15.8989 383.478 14.8299 381.301 11.968C379.205 9.21328 376.487 9.56238 376.487 9.56238L376.49 9.56487C376.49 9.56487 376.839 6.84614 374.085 4.7506C371.223 2.57382 370.154 1.75563 370.057 1.15509C369.96 1.75563 368.891 2.57382 366.03 4.7506C363.275 6.84614 363.624 9.56487 363.624 9.56487L363.622 9.56673C363.622 9.56673 360.903 9.21762 358.808 11.9723C356.631 14.8343 355.813 15.9033 355.212 16V15.9957C354.611 15.8989 353.793 14.8299 351.617 11.968C349.521 9.21328 346.802 9.56238 346.802 9.56238L346.806 9.56487C346.806 9.56487 347.155 6.84614 344.4 4.7506C341.538 2.57382 340.469 1.75563 340.373 1.15509C340.276 1.75563 339.207 2.57382 336.345 4.7506C333.59 6.84614 333.939 9.56487 333.939 9.56487L333.938 9.56673C333.938 9.56673 331.219 9.21762 329.124 11.9723C326.947 14.8343 326.129 15.9033 325.528 16V15.9957C324.927 15.8989 324.109 14.8299 321.932 11.968C319.837 9.21328 317.118 9.56238 317.118 9.56238L317.122 9.56487C317.122 9.56487 317.471 6.84614 314.716 4.7506C311.854 2.57382 310.785 1.75563 310.688 1.15509C310.591 1.75563 309.523 2.57382 306.661 4.7506C303.906 6.84614 304.255 9.56487 304.255 9.56487L304.253 9.56673C304.253 9.56673 301.535 9.21762 299.439 11.9723C297.262 14.8343 296.444 15.9033 295.844 16V15.9957C295.243 15.8989 294.425 14.8299 292.248 11.968C290.152 9.21328 287.434 9.56238 287.434 9.56238L287.437 9.56487C287.437 9.56487 287.787 6.84614 285.032 4.7506C282.17 2.57382 281.101 1.75563 281.004 1.15509C280.907 1.75563 279.838 2.57382 276.976 4.7506C274.222 6.84614 274.571 9.56487 274.571 9.56487L274.569 9.56673C274.569 9.56673 271.85 9.21762 269.755 11.9723C267.578 14.8343 266.76 15.9033 266.159 16V15.9957C265.558 15.8989 264.741 14.8299 262.563 11.968C260.468 9.21328 257.749 9.56238 257.749 9.56238L257.753 9.56487C257.753 9.56487 258.102 6.84614 255.347 4.7506C252.485 2.57382 251.417 1.75563 251.32 1.15509C251.223 1.75563 250.154 2.57382 247.292 4.7506C244.537 6.84614 244.886 9.56487 244.886 9.56487L244.884 9.56673C244.884 9.56673 242.166 9.21762 240.07 11.9723C237.893 14.8343 237.075 15.9033 236.475 16V15.9957C235.874 15.8989 235.056 14.8299 232.879 11.968C230.784 9.21328 228.065 9.56238 228.065 9.56238L228.068 9.56487C228.068 9.56487 228.418 6.84614 225.663 4.7506C222.801 2.57382 221.732 1.75563 221.635 1.15509C221.538 1.75563 220.47 2.57382 217.608 4.7506C214.853 6.84614 215.202 9.56487 215.202 9.56487L215.2 9.56673C215.2 9.56673 212.481 9.21762 210.386 11.9723C208.209 14.8343 207.391 15.9033 206.79 16V15.9957C206.19 15.8989 205.372 14.8299 203.195 11.968C201.099 9.21328 198.38 9.56238 198.38 9.56238L198.384 9.56487C198.384 9.56487 198.733 6.84614 195.978 4.7506C193.117 2.57382 192.048 1.75563 191.951 1.15509C191.854 1.75563 190.785 2.57382 187.923 4.7506C185.168 6.84614 185.517 9.56487 185.517 9.56487L185.516 9.56673C185.516 9.56673 182.797 9.21762 180.702 11.9723C178.525 14.8343 177.707 15.9033 177.106 16V15.9957C176.505 15.8989 175.687 14.8299 173.51 11.968C171.415 9.21328 168.696 9.56238 168.696 9.56238L168.7 9.56487C168.7 9.56487 169.049 6.84614 166.294 4.7506C163.432 2.57382 162.364 1.75563 162.267 1.15509C162.17 1.75563 161.101 2.57382 158.239 4.7506C155.484 6.84614 155.833 9.56487 155.833 9.56487L155.831 9.56673C155.831 9.56673 153.113 9.21762 151.017 11.9723C148.84 14.8343 148.022 15.9033 147.422 16V15.9957C146.821 15.8989 146.003 14.8299 143.826 11.968C141.731 9.21328 139.012 9.56238 139.012 9.56238L139.016 9.56487C139.016 9.56487 139.365 6.84614 136.61 4.7506C133.748 2.57382 132.679 1.75563 132.582 1.15509C132.485 1.75563 131.417 2.57382 128.555 4.7506C125.8 6.84614 126.149 9.56487 126.149 9.56487L126.147 9.56673C126.147 9.56673 123.429 9.21762 121.333 11.9723C119.156 14.8343 118.338 15.9033 117.737 16V15.9957C117.137 15.8989 116.319 14.8299 114.142 11.968C112.046 9.21328 109.328 9.56238 109.328 9.56238L109.331 9.56487C109.331 9.56487 109.68 6.84614 106.926 4.7506C104.064 2.57382 102.995 1.75563 102.898 1.15509C102.801 1.75563 101.732 2.57382 98.8703 4.7506C96.1156 6.84614 96.4647 9.56487 96.4647 9.56487L96.4629 9.56673C96.4629 9.56673 93.7438 9.21762 91.6489 11.9723C89.4715 14.8343 88.6536 15.9033 88.0531 16V15.9957C87.4522 15.8989 86.6344 14.8299 84.4573 11.968C82.3617 9.21328 79.6433 9.56238 79.6433 9.56238L79.647 9.56487C79.647 9.56487 79.9961 6.84614 77.2411 4.7506C74.3792 2.57382 73.3105 1.75563 73.2137 1.15509C73.1167 1.75563 72.048 2.57382 69.1857 4.7506C66.431 6.84614 66.7805 9.56487 66.7805 9.56487L66.7783 9.56673C66.7783 9.56673 64.0596 9.21762 61.964 11.9723C59.7872 14.8343 58.9691 15.9033 58.3685 16V15.9957C57.7677 15.8989 56.9501 14.8299 54.7727 11.968C52.6775 9.21328 49.9587 9.56238 49.9587 9.56238L49.9625 9.56487C49.9625 9.56487 50.3116 6.84614 47.5569 4.7506C44.6949 2.57382 43.6259 1.75563 43.5292 1.15509C43.4321 1.75563 42.3634 2.57382 39.5015 4.7506C36.7468 6.84614 37.0959 9.56487 37.0959 9.56487L37.094 9.56673C37.094 9.56673 34.3753 9.21762 32.2798 11.9723C30.103 14.8343 29.2848 15.9033 28.6843 16V15.9957C28.0834 15.8989 27.2655 14.8299 25.0884 11.968C22.9929 9.21328 20.2745 9.56238 20.2745 9.56238L20.2779 9.56487C20.2779 9.56487 20.627 6.84614 17.8726 4.7506C15.0107 2.57382 13.9417 1.75563 13.8449 1.15509C13.7479 1.75563 12.6792 2.57382 9.81722 4.7506C7.06222 6.84614 7.41164 9.56487 7.41164 9.56487L7.40977 9.56673C7.40977 9.56673 4.69105 9.21762 2.59551 11.9723C0.418733 14.8343 -0.399457 15.9033 -1 16" stroke="#C09440" stroke-width="1.5" stroke-linecap="round" stroke-linejoin="round"/>
<path d="M1067.32 15.9957C1066.72 15.8989 1065.9 14.8299 1063.72 11.968C1061.63 9.21328 1058.91 9.56238 1058.91 9.56238L1058.91 9.56487C1058.91 9.56487 1059.26 6.84614 1056.51 4.7506C1053.64 2.57382 1052.58 1.75563 1052.48 1.15509C1052.38 1.75563 1051.31 2.57382 1048.45 4.7506C1045.7 6.84614 1046.05 9.56487 1046.05 9.56487L1046.04 9.56673C1046.04 9.56673 1043.32 9.21762 1041.23 11.9723C1039.05 14.8343 1038.23 15.9033 1037.63 16V15.9957C1037.03 15.8989 1036.22 14.8299 1034.04 11.968C1031.94 9.21328 1029.22 9.56238 1029.22 9.56238L1029.23 9.56487C1029.23 9.56487 1029.58 6.84614 1026.82 4.7506C1023.96 2.57382 1022.89 1.75563 1022.79 1.15509C1022.7 1.75563 1021.63 2.57382 1018.77 4.7506C1016.01 6.84614 1016.36 9.56487 1016.36 9.56487L1016.36 9.56673C1016.36 9.56673 1013.64 9.21762 1011.55 11.9723C1009.37 14.8343 1008.55 15.9033 1007.95 16V15.9957C1007.35 15.8989 1006.53 14.8299 1004.35 11.968C1002.26 9.21328 999.54 9.56238 999.54 9.56238L999.543 9.56487C999.543 9.56487 999.892 6.84614 997.138 4.7506C994.276 2.57382 993.207 1.75563 993.11 1.15509C993.013 1.75563 991.945 2.57382 989.082 4.7506C986.328 6.84614 986.677 9.56487 986.677 9.56487L986.675 9.56673C986.675 9.56673 983.956 9.21762 981.861 11.9723C979.684 14.8343 978.866 15.9033 978.265 16V15.9957C977.665 15.8989 976.846 14.8299 974.67 11.968C972.574 9.21328 969.856 9.56238 969.856 9.56238L969.859 9.56487C969.859 9.56487 970.208 6.84614 967.453 4.7506C964.592 2.57382 963.523 1.75563 963.426 1.15509C963.329 1.75563 962.26 2.57382 959.398 4.7506C956.643 6.84614 956.992 9.56487 956.992 9.56487L956.99 9.56673C956.99 9.56673 954.272 9.21762 952.176 11.9723C950 14.8343 949.181 15.9033 948.581 16V15.9957C947.98 15.8989 947.162 14.8299 944.985 11.968C942.89 9.21328 940.171 9.56238 940.171 9.56238L940.174 9.56487C940.174 9.56487 940.524 6.84614 937.769 4.7506C934.907 2.57382 933.838 1.75563 933.741 1.15509C933.644 1.75563 932.575 2.57382 929.714 4.7506C926.959 6.84614 927.308 9.56487 927.308 9.56487L927.306 9.56673C927.306 9.56673 924.588 9.21762 922.492 11.9723C920.315 14.8343 919.497 15.9033 918.896 16V15.9957C918.296 15.8989 917.478 14.8299 915.301 11.968C913.205 9.21328 910.487 9.56238 910.487 9.56238L910.49 9.56487C910.49 9.56487 910.839 6.84614 908.085 4.7506C905.223 2.57382 904.154 1.75563 904.057 1.15509C903.96 1.75563 902.891 2.57382 900.03 4.7506C897.275 6.84614 897.624 9.56487 897.624 9.56487L897.622 9.56673C897.622 9.56673 894.903 9.21762 892.808 11.9723C890.631 14.8343 889.813 15.9033 889.212 16V15.9957C888.611 15.8989 887.793 14.8299 885.617 11.968C883.521 9.21328 880.802 9.56238 880.802 9.56238L880.806 9.56487C880.806 9.56487 881.155 6.84614 878.4 4.7506C875.538 2.57382 874.469 1.75563 874.373 1.15509C874.276 1.75563 873.207 2.57382 870.345 4.7506C867.59 6.84614 867.939 9.56487 867.939 9.56487L867.938 9.56673C867.938 9.56673 865.219 9.21762 863.124 11.9723C860.947 14.8343 860.129 15.9033 859.528 16V15.9957C858.927 15.8989 858.109 14.8299 855.932 11.968C853.837 9.21328 851.118 9.56238 851.118 9.56238L851.122 9.56487C851.122 9.56487 851.471 6.84614 848.716 4.7506C845.854 2.57382 844.785 1.75563 844.688 1.15509C844.591 1.75563 843.523 2.57382 840.661 4.7506C837.906 6.84614 838.255 9.56487 838.255 9.56487L838.253 9.56673C838.253 9.56673 835.535 9.21762 833.439 11.9723C831.262 14.8343 830.444 15.9033 829.844 16V15.9957C829.243 15.8989 828.425 14.8299 826.248 11.968C824.152 9.21328 821.434 9.56238 821.434 9.56238L821.437 9.56487C821.437 9.56487 821.787 6.84614 819.032 4.7506C816.17 2.57382 815.101 1.75563 815.004 1.15509C814.907 1.75563 813.838 2.57382 810.976 4.7506C808.222 6.84614 808.571 9.56487 808.571 9.56487L808.569 9.56673C808.569 9.56673 805.85 9.21762 803.755 11.9723C801.578 14.8343 800.76 15.9033 800.159 16V15.9957C799.558 15.8989 798.741 14.8299 796.563 11.968C794.468 9.21328 791.749 9.56238 791.749 9.56238L791.753 9.56487C791.753 9.56487 792.102 6.84614 789.347 4.7506C786.485 2.57382 785.417 1.75563 785.32 1.15509C785.223 1.75563 784.154 2.57382 781.292 4.7506C778.537 6.84614 778.886 9.56487 778.886 9.56487L778.884 9.56673C778.884 9.56673 776.166 9.21762 774.07 11.9723C771.893 14.8343 771.075 15.9033 770.475 16V15.9957C769.874 15.8989 769.056 14.8299 766.879 11.968C764.784 9.21328 762.065 9.56238 762.065 9.56238L762.068 9.56487C762.068 9.56487 762.418 6.84614 759.663 4.7506C756.801 2.57382 755.732 1.75563 755.635 1.15509C755.538 1.75563 754.47 2.57382 751.608 4.7506C748.853 6.84614 749.202 9.56487 749.202 9.56487L749.2 9.56673C749.2 9.56673 746.481 9.21762 744.386 11.9723C742.209 14.8343 741.391 15.9033 740.79 16V15.9957C740.19 15.8989 739.372 14.8299 737.195 11.968C735.099 9.21328 732.38 9.56238 732.38 9.56238L732.384 9.56487C732.384 9.56487 732.733 6.84614 729.978 4.7506C727.117 2.57382 726.048 1.75563 725.951 1.15509C725.854 1.75563 724.785 2.57382 721.923 4.7506C719.168 6.84614 719.517 9.56487 719.517 9.56487L719.516 9.56673C719.516 9.56673 716.797 9.21762 714.702 11.9723C712.525 14.8343 711.707 15.9033 711.106 16V15.9957C710.505 15.8989 709.687 14.8299 707.51 11.968C705.415 9.21328 702.696 9.56238 702.696 9.56238L702.7 9.56487C702.7 9.56487 703.049 6.84614 700.294 4.7506C697.432 2.57382 696.364 1.75563 696.267 1.15509C696.17 1.75563 695.101 2.57382 692.239 4.7506C689.484 6.84614 689.833 9.56487 689.833 9.56487L689.831 9.56673C689.831 9.56673 687.113 9.21762 685.017 11.9723C682.84 14.8343 682.022 15.9033 681.422 16V15.9957C680.821 15.8989 680.003 14.8299 677.826 11.968C675.731 9.21328 673.012 9.56238 673.012 9.56238L673.016 9.56487C673.016 9.56487 673.365 6.84614 670.61 4.7506C667.748 2.57382 666.679 1.75563 666.582 1.15509C666.485 1.75563 665.417 2.57382 662.555 4.7506C659.8 6.84614 660.149 9.56487 660.149 9.56487L660.147 9.56673C660.147 9.56673 657.429 9.21762 655.333 11.9723C653.156 14.8343 652.338 15.9033 651.737 16V15.9957C651.137 15.8989 650.319 14.8299 648.142 11.968C646.046 9.21328 643.328 9.56238 643.328 9.56238L643.331 9.56487C643.331 9.56487 643.68 6.84614 640.926 4.7506C638.064 2.57382 636.995 1.75563 636.898 1.15509C636.801 1.75563 635.732 2.57382 632.87 4.7506C630.116 6.84614 630.465 9.56487 630.465 9.56487L630.463 9.56673C630.463 9.56673 627.744 9.21762 625.649 11.9723C623.472 14.8343 622.654 15.9033 622.053 16V15.9957C621.452 15.8989 620.634 14.8299 618.457 11.968C616.362 9.21328 613.643 9.56238 613.643 9.56238L613.647 9.56487C613.647 9.56487 613.996 6.84614 611.241 4.7506C608.379 2.57382 607.31 1.75563 607.214 1.15509C607.117 1.75563 606.048 2.57382 603.186 4.7506C600.431 6.84614 600.78 9.56487 600.78 9.56487L600.778 9.56673C600.778 9.56673 598.06 9.21762 595.964 11.9723C593.787 14.8343 592.969 15.9033 592.369 16V15.9957C591.768 15.8989 590.95 14.8299 588.773 11.968C586.677 9.21328 583.959 9.56238 583.959 9.56238L583.962 9.56487C583.962 9.56487 584.312 6.84614 581.557 4.7506C578.695 2.57382 577.626 1.75563 577.529 1.15509C577.432 1.75563 576.363 2.57382 573.501 4.7506C570.747 6.84614 571.096 9.56487 571.096 9.56487L571.094 9.56673C571.094 9.56673 568.375 9.21762 566.28 11.9723C564.103 14.8343 563.285 15.9033 562.684 16V15.9957C562.083 15.8989 561.266 14.8299 559.088 11.968C556.993 9.21328 554.274 9.56238 554.274 9.56238L554.278 9.56487C554.278 9.56487 554.627 6.84614 551.873 4.7506C549.011 2.57382 547.942 1.75563 547.845 1.15509C547.748 1.75563 546.679 2.57382 543.817 4.7506C541.062 6.84614 541.412 9.56487 541.412 9.56487L541.41 9.56673C541.41 9.56673 538.691 9.21762 536.596 11.9723C534.419 14.8343 533.601 15.9033 533 16" stroke="#C09440" stroke-width="1.5" stroke-linecap="round" stroke-linejoin="round"/>
<path d="M1601.32 15.9957C1600.72 15.8989 1599.9 14.8299 1597.72 11.968C1595.63 9.21328 1592.91 9.56238 1592.91 9.56238L1592.91 9.56487C1592.91 9.56487 1593.26 6.84614 1590.51 4.7506C1587.64 2.57382 1586.58 1.75563 1586.48 1.15509C1586.38 1.75563 1585.31 2.57382 1582.45 4.7506C1579.7 6.84614 1580.05 9.56487 1580.05 9.56487L1580.04 9.56673C1580.04 9.56673 1577.32 9.21762 1575.23 11.9723C1573.05 14.8343 1572.23 15.9033 1571.63 16V15.9957C1571.03 15.8989 1570.22 14.8299 1568.04 11.968C1565.94 9.21328 1563.22 9.56238 1563.22 9.56238L1563.23 9.56487C1563.23 9.56487 1563.58 6.84614 1560.82 4.7506C1557.96 2.57382 1556.89 1.75563 1556.79 1.15509C1556.7 1.75563 1555.63 2.57382 1552.77 4.7506C1550.01 6.84614 1550.36 9.56487 1550.36 9.56487L1550.36 9.56673C1550.36 9.56673 1547.64 9.21762 1545.55 11.9723C1543.37 14.8343 1542.55 15.9033 1541.95 16V15.9957C1541.35 15.8989 1540.53 14.8299 1538.35 11.968C1536.26 9.21328 1533.54 9.56238 1533.54 9.56238L1533.54 9.56487C1533.54 9.56487 1533.89 6.84614 1531.14 4.7506C1528.28 2.57382 1527.21 1.75563 1527.11 1.15509C1527.01 1.75563 1525.94 2.57382 1523.08 4.7506C1520.33 6.84614 1520.68 9.56487 1520.68 9.56487L1520.68 9.56673C1520.68 9.56673 1517.96 9.21762 1515.86 11.9723C1513.68 14.8343 1512.87 15.9033 1512.27 16V15.9957C1511.66 15.8989 1510.85 14.8299 1508.67 11.968C1506.57 9.21328 1503.86 9.56238 1503.86 9.56238L1503.86 9.56487C1503.86 9.56487 1504.21 6.84614 1501.45 4.7506C1498.59 2.57382 1497.52 1.75563 1497.43 1.15509C1497.33 1.75563 1496.26 2.57382 1493.4 4.7506C1490.64 6.84614 1490.99 9.56487 1490.99 9.56487L1490.99 9.56673C1490.99 9.56673 1488.27 9.21762 1486.18 11.9723C1484 14.8343 1483.18 15.9033 1482.58 16V15.9957C1481.98 15.8989 1481.16 14.8299 1478.99 11.968C1476.89 9.21328 1474.17 9.56238 1474.17 9.56238L1474.17 9.56487C1474.17 9.56487 1474.52 6.84614 1471.77 4.7506C1468.91 2.57382 1467.84 1.75563 1467.74 1.15509C1467.64 1.75563 1466.58 2.57382 1463.71 4.7506C1460.96 6.84614 1461.31 9.56487 1461.31 9.56487L1461.31 9.56673C1461.31 9.56673 1458.59 9.21762 1456.49 11.9723C1454.32 14.8343 1453.5 15.9033 1452.9 16V15.9957C1452.3 15.8989 1451.48 14.8299 1449.3 11.968C1447.21 9.21328 1444.49 9.56238 1444.49 9.56238L1444.49 9.56487C1444.49 9.56487 1444.84 6.84614 1442.08 4.7506C1439.22 2.57382 1438.15 1.75563 1438.06 1.15509C1437.96 1.75563 1436.89 2.57382 1434.03 4.7506C1431.27 6.84614 1431.62 9.56487 1431.62 9.56487L1431.62 9.56673C1431.62 9.56673 1428.9 9.21762 1426.81 11.9723C1424.63 14.8343 1423.81 15.9033 1423.21 16V15.9957C1422.61 15.8989 1421.79 14.8299 1419.62 11.968C1417.52 9.21328 1414.8 9.56238 1414.8 9.56238L1414.81 9.56487C1414.81 9.56487 1415.16 6.84614 1412.4 4.7506C1409.54 2.57382 1408.47 1.75563 1408.37 1.15509C1408.28 1.75563 1407.21 2.57382 1404.34 4.7506C1401.59 6.84614 1401.94 9.56487 1401.94 9.56487L1401.94 9.56673C1401.94 9.56673 1399.22 9.21762 1397.12 11.9723C1394.95 14.8343 1394.13 15.9033 1393.53 16V15.9957C1392.93 15.8989 1392.11 14.8299 1389.93 11.968C1387.84 9.21328 1385.12 9.56238 1385.12 9.56238L1385.12 9.56487C1385.12 9.56487 1385.47 6.84614 1382.72 4.7506C1379.85 2.57382 1378.79 1.75563 1378.69 1.15509C1378.59 1.75563 1377.52 2.57382 1374.66 4.7506C1371.91 6.84614 1372.26 9.56487 1372.26 9.56487L1372.25 9.56673C1372.25 9.56673 1369.53 9.21762 1367.44 11.9723C1365.26 14.8343 1364.44 15.9033 1363.84 16V15.9957C1363.24 15.8989 1362.42 14.8299 1360.25 11.968C1358.15 9.21328 1355.43 9.56238 1355.43 9.56238L1355.44 9.56487C1355.44 9.56487 1355.79 6.84614 1353.03 4.7506C1350.17 2.57382 1349.1 1.75563 1349 1.15509C1348.91 1.75563 1347.84 2.57382 1344.98 4.7506C1342.22 6.84614 1342.57 9.56487 1342.57 9.56487L1342.57 9.56673C1342.57 9.56673 1339.85 9.21762 1337.75 11.9723C1335.58 14.8343 1334.76 15.9033 1334.16 16V15.9957C1333.56 15.8989 1332.74 14.8299 1330.56 11.968C1328.47 9.21328 1325.75 9.56238 1325.75 9.56238L1325.75 9.56487C1325.75 9.56487 1326.1 6.84614 1323.35 4.7506C1320.49 2.57382 1319.42 1.75563 1319.32 1.15509C1319.22 1.75563 1318.15 2.57382 1315.29 4.7506C1312.54 6.84614 1312.89 9.56487 1312.89 9.56487L1312.88 9.56673C1312.88 9.56673 1310.17 9.21762 1308.07 11.9723C1305.89 14.8343 1305.08 15.9033 1304.47 16V15.9957C1303.87 15.8989 1303.06 14.8299 1300.88 11.968C1298.78 9.21328 1296.06 9.56238 1296.06 9.56238L1296.07 9.56487C1296.07 9.56487 1296.42 6.84614 1293.66 4.7506C1290.8 2.57382 1289.73 1.75563 1289.64 1.15509C1289.54 1.75563 1288.47 2.57382 1285.61 4.7506C1282.85 6.84614 1283.2 9.56487 1283.2 9.56487L1283.2 9.56673C1283.2 9.56673 1280.48 9.21762 1278.39 11.9723C1276.21 14.8343 1275.39 15.9033 1274.79 16V15.9957C1274.19 15.8989 1273.37 14.8299 1271.19 11.968C1269.1 9.21328 1266.38 9.56238 1266.38 9.56238L1266.38 9.56487C1266.38 9.56487 1266.73 6.84614 1263.98 4.7506C1261.12 2.57382 1260.05 1.75563 1259.95 1.15509C1259.85 1.75563 1258.79 2.57382 1255.92 4.7506C1253.17 6.84614 1253.52 9.56487 1253.52 9.56487L1253.52 9.56673C1253.52 9.56673 1250.8 9.21762 1248.7 11.9723C1246.52 14.8343 1245.71 15.9033 1245.11 16V15.9957C1244.51 15.8989 1243.69 14.8299 1241.51 11.968C1239.41 9.21328 1236.7 9.56238 1236.7 9.56238L1236.7 9.56487C1236.7 9.56487 1237.05 6.84614 1234.29 4.7506C1231.43 2.57382 1230.36 1.75563 1230.27 1.15509C1230.17 1.75563 1229.1 2.57382 1226.24 4.7506C1223.48 6.84614 1223.83 9.56487 1223.83 9.56487L1223.83 9.56673C1223.83 9.56673 1221.11 9.21762 1219.02 11.9723C1216.84 14.8343 1216.02 15.9033 1215.42 16V15.9957C1214.82 15.8989 1214 14.8299 1211.83 11.968C1209.73 9.21328 1207.01 9.56238 1207.01 9.56238L1207.02 9.56487C1207.02 9.56487 1207.36 6.84614 1204.61 4.7506C1201.75 2.57382 1200.68 1.75563 1200.58 1.15509C1200.49 1.75563 1199.42 2.57382 1196.55 4.7506C1193.8 6.84614 1194.15 9.56487 1194.15 9.56487L1194.15 9.56673C1194.15 9.56673 1191.43 9.21762 1189.33 11.9723C1187.16 14.8343 1186.34 15.9033 1185.74 16V15.9957C1185.14 15.8989 1184.32 14.8299 1182.14 11.968C1180.05 9.21328 1177.33 9.56238 1177.33 9.56238L1177.33 9.56487C1177.33 9.56487 1177.68 6.84614 1174.93 4.7506C1172.06 2.57382 1170.99 1.75563 1170.9 1.15509C1170.8 1.75563 1169.73 2.57382 1166.87 4.7506C1164.12 6.84614 1164.46 9.56487 1164.46 9.56487L1164.46 9.56673C1164.46 9.56673 1161.74 9.21762 1159.65 11.9723C1157.47 14.8343 1156.65 15.9033 1156.05 16V15.9957C1155.45 15.8989 1154.63 14.8299 1152.46 11.968C1150.36 9.21328 1147.64 9.56238 1147.64 9.56238L1147.65 9.56487C1147.65 9.56487 1148 6.84614 1145.24 4.7506C1142.38 2.57382 1141.31 1.75563 1141.21 1.15509C1141.12 1.75563 1140.05 2.57382 1137.19 4.7506C1134.43 6.84614 1134.78 9.56487 1134.78 9.56487L1134.78 9.56673C1134.78 9.56673 1132.06 9.21762 1129.96 11.9723C1127.79 14.8343 1126.97 15.9033 1126.37 16V15.9957C1125.77 15.8989 1124.95 14.8299 1122.77 11.968C1120.68 9.21328 1117.96 9.56238 1117.96 9.56238L1117.96 9.56487C1117.96 9.56487 1118.31 6.84614 1115.56 4.7506C1112.69 2.57382 1111.63 1.75563 1111.53 1.15509C1111.43 1.75563 1110.36 2.57382 1107.5 4.7506C1104.75 6.84614 1105.1 9.56487 1105.1 9.56487L1105.09 9.56673C1105.09 9.56673 1102.38 9.21762 1100.28 11.9723C1098.1 14.8343 1097.28 15.9033 1096.68 16V15.9957C1096.08 15.8989 1095.27 14.8299 1093.09 11.968C1090.99 9.21328 1088.27 9.56238 1088.27 9.56238L1088.28 9.56487C1088.28 9.56487 1088.63 6.84614 1085.87 4.7506C1083.01 2.57382 1081.94 1.75563 1081.84 1.15509C1081.75 1.75563 1080.68 2.57382 1077.82 4.7506C1075.06 6.84614 1075.41 9.56487 1075.41 9.56487L1075.41 9.56673C1075.41 9.56673 1072.69 9.21762 1070.6 11.9723C1068.42 14.8343 1067.6 15.9033 1067 16" stroke="#C09440" stroke-width="1.5" stroke-linecap="round" stroke-linejoin="round"/>
</svg>
